# xmcd
#
# Track frame offsets: 
#        183
#        17095
#        31683
#        44688
#        58475
#        72548
#        87670
#        102825
#        118848
#        131268
#        145808
#        162660
#
# Disc length: 2388 seconds
#
# Revision: 0
# Processed by: cddbd v1.5.2PL0 Copyright (c) Steve Scherf et al.
# Submitted via: ExactAudioCopy v0.95a1
#
DISCID=b309520c
DTITLE=Vera Martinova - Dal jen vejdi
DYEAR=1989
DGENRE=Country
TTITLE0=Dal jen vejdi
TTITLE1=Brzy bude rano
TTITLE2=Zitra dalsi vlaky pojedou
TTITLE3=Kun, co vyhral nejslavnejsi steeple chase
TTITLE4=Maly dum nad skalou
TTITLE5=Az na vrcholky hor
TTITLE6=Nocni blues
TTITLE7=Zadny
TTITLE8=Na cestach
TTITLE9=Posledni rallye
TTITLE10=Toulavy dziny
TTITLE11=Rodeo je jako svet
EXTD=
EXTT0=
EXTT1=
EXTT2=
EXTT3=
EXTT4=
EXTT5=
EXTT6=
EXTT7=
EXTT8=
EXTT9=
EXTT10=
EXTT11=
PLAYORDER=
